<?xml version="1.0" standalone="no"?>
<svg xmlns:xlink="http://www.w3.org/1999/xlink" id="wave" style="transform:rotate(0deg); transition: 0.3s" viewBox="0 0 1440 160" version="1.1" xmlns="http://www.w3.org/2000/svg"><defs><linearGradient id="sw-gradient-0" x1="0" x2="0" y1="1" y2="0"><stop stop-color="rgba(33, 83, 133, 0.4)" offset="0%"/><stop stop-color="rgba(33, 83, 133, 0.36)" offset="100%"/></linearGradient></defs><path style="transform:translate(0, 0px); opacity:1" fill="url(#sw-gradient-0)" d="M0,144L30,144C60,144,120,144,180,133.3C240,123,300,101,360,82.7C420,64,480,48,540,34.7C600,21,660,11,720,29.3C780,48,840,96,900,98.7C960,101,1020,59,1080,45.3C1140,32,1200,48,1260,45.3C1320,43,1380,21,1440,34.7C1500,48,1560,96,1620,101.3C1680,107,1740,69,1800,50.7C1860,32,1920,32,1980,34.7C2040,37,2100,43,2160,37.3C2220,32,2280,16,2340,21.3C2400,27,2460,53,2520,69.3C2580,85,2640,91,2700,88C2760,85,2820,75,2880,64C2940,53,3000,43,3060,42.7C3120,43,3180,53,3240,58.7C3300,64,3360,64,3420,77.3C3480,91,3540,117,3600,117.3C3660,117,3720,91,3780,66.7C3840,43,3900,21,3960,13.3C4020,5,4080,11,4140,32C4200,53,4260,91,4290,109.3L4320,128L4320,160L4290,160C4260,160,4200,160,4140,160C4080,160,4020,160,3960,160C3900,160,3840,160,3780,160C3720,160,3660,160,3600,160C3540,160,3480,160,3420,160C3360,160,3300,160,3240,160C3180,160,3120,160,3060,160C3000,160,2940,160,2880,160C2820,160,2760,160,2700,160C2640,160,2580,160,2520,160C2460,160,2400,160,2340,160C2280,160,2220,160,2160,160C2100,160,2040,160,1980,160C1920,160,1860,160,1800,160C1740,160,1680,160,1620,160C1560,160,1500,160,1440,160C1380,160,1320,160,1260,160C1200,160,1140,160,1080,160C1020,160,960,160,900,160C840,160,780,160,720,160C660,160,600,160,540,160C480,160,420,160,360,160C300,160,240,160,180,160C120,160,60,160,30,160L0,160Z"/><defs><linearGradient id="sw-gradient-1" x1="0" x2="0" y1="1" y2="0"><stop stop-color="rgba(33, 83, 133, 0.31)" offset="0%"/><stop stop-color="rgba(33, 83, 133, 0.35)" offset="100%"/></linearGradient></defs><path style="transform:translate(0, 50px); opacity:0.9" fill="url(#sw-gradient-1)" d="M0,64L30,72C60,80,120,96,180,88C240,80,300,48,360,29.3C420,11,480,5,540,10.7C600,16,660,32,720,40C780,48,840,48,900,40C960,32,1020,16,1080,18.7C1140,21,1200,43,1260,42.7C1320,43,1380,21,1440,13.3C1500,5,1560,11,1620,32C1680,53,1740,91,1800,106.7C1860,123,1920,117,1980,117.3C2040,117,2100,123,2160,106.7C2220,91,2280,53,2340,32C2400,11,2460,5,2520,26.7C2580,48,2640,96,2700,114.7C2760,133,2820,123,2880,112C2940,101,3000,91,3060,90.7C3120,91,3180,101,3240,88C3300,75,3360,37,3420,21.3C3480,5,3540,11,3600,10.7C3660,11,3720,5,3780,16C3840,27,3900,53,3960,69.3C4020,85,4080,91,4140,98.7C4200,107,4260,117,4290,122.7L4320,128L4320,160L4290,160C4260,160,4200,160,4140,160C4080,160,4020,160,3960,160C3900,160,3840,160,3780,160C3720,160,3660,160,3600,160C3540,160,3480,160,3420,160C3360,160,3300,160,3240,160C3180,160,3120,160,3060,160C3000,160,2940,160,2880,160C2820,160,2760,160,2700,160C2640,160,2580,160,2520,160C2460,160,2400,160,2340,160C2280,160,2220,160,2160,160C2100,160,2040,160,1980,160C1920,160,1860,160,1800,160C1740,160,1680,160,1620,160C1560,160,1500,160,1440,160C1380,160,1320,160,1260,160C1200,160,1140,160,1080,160C1020,160,960,160,900,160C840,160,780,160,720,160C660,160,600,160,540,160C480,160,420,160,360,160C300,160,240,160,180,160C120,160,60,160,30,160L0,160Z"/></svg>